<?xml version="1.0" encoding="UTF-8"?>
<svg xmlns="http://www.w3.org/2000/svg" xmlns:xlink="http://www.w3.org/1999/xlink" width="208pt" height="208pt" viewBox="0 0 208 208" version="1.1">
<g id="surface1">
<path style=" stroke:none;fill-rule:nonzero;fill:#42526E;fill-opacity:1;" d="M 51.210938 24.128906 C 23.234375 24.128906 0.492188 46.902344 0.492188 74.847656 C 0.492188 88.945313 6.464844 101.625 15.757813 110.796875 L 15.757813 173.332031 C 15.757813 177.671875 19.296875 181.210938 23.636719 181.210938 L 39.394531 181.210938 C 41.332031 167.640625 52.875 157.082031 66.96875 157.082031 C 81.066406 157.082031 92.605469 167.640625 94.546875 181.210938 L 110.304688 181.210938 C 114.640625 181.210938 118.183594 177.671875 118.183594 173.332031 L 118.183594 78.789063 C 118.183594 74.449219 114.640625 70.910156 110.304688 70.910156 L 101.6875 70.910156 C 99.65625 44.8125 77.804688 24.128906 51.210938 24.128906 Z M 51.210938 35.207031 C 73.03125 35.207031 90.851563 53.027344 90.851563 74.847656 C 90.851563 96.667969 73.03125 114.488281 51.210938 114.488281 C 29.390625 114.488281 11.570313 96.667969 11.570313 74.847656 C 11.570313 53.027344 29.390625 35.207031 51.210938 35.207031 Z M 51.210938 43.578125 C 49.242188 43.578125 48.535156 45.148438 48.503906 46.042969 L 47.273438 68.691406 C 45.210938 70.015625 43.824219 72.234375 43.824219 74.847656 C 43.824219 78.941406 47.089844 82.234375 51.210938 82.234375 C 51.367188 82.234375 51.550781 82.234375 51.703125 82.234375 L 65.246094 93.808594 C 65.890625 94.390625 67.617188 94.851563 69.433594 93.066406 C 71.21875 91.253906 70.96875 89.28125 70.417969 88.636719 L 58.597656 74.847656 C 58.597656 72.078125 57.121094 69.738281 54.90625 68.445313 L 53.921875 46.042969 C 53.859375 45.148438 53.121094 43.578125 51.210938 43.578125 Z M 133.9375 86.667969 C 129.601563 86.667969 126.0625 90.207031 126.0625 94.546875 L 126.0625 173.332031 C 126.0625 177.671875 129.628906 181.179688 133.9375 181.210938 C 135.878906 167.640625 147.417969 157.082031 161.515625 157.082031 C 175.609375 157.082031 187.152344 167.640625 189.089844 181.210938 L 196.96875 181.210938 C 201.308594 181.210938 204.847656 177.671875 204.847656 173.332031 L 204.847656 133.9375 C 204.847656 126.492188 198.691406 117.9375 198.691406 117.9375 L 181.210938 94.546875 C 177.609375 90.207031 175.179688 86.667969 169.394531 86.667969 Z M 149.695313 102.425781 L 168.902344 102.425781 C 170.164063 102.425781 172.101563 104.394531 172.101563 104.394531 L 188.597656 127.292969 C 190.074219 129.445313 191.554688 131.96875 191.554688 133.9375 L 149.695313 133.9375 Z M 66.96875 166.933594 C 56.90625 166.933594 48.75 175.085938 48.75 185.152344 C 48.75 195.214844 56.90625 203.371094 66.96875 203.371094 C 77.035156 203.371094 85.1875 195.214844 85.1875 185.152344 C 85.1875 175.085938 77.035156 166.933594 66.96875 166.933594 Z M 161.515625 166.933594 C 151.453125 166.933594 143.296875 175.085938 143.296875 185.152344 C 143.296875 195.214844 151.453125 203.371094 161.515625 203.371094 C 171.578125 203.371094 179.734375 195.214844 179.734375 185.152344 C 179.734375 175.085938 171.578125 166.933594 161.515625 166.933594 Z "/>
</g>
</svg>
