<?xml version="1.0" encoding="UTF-8"?>
<svg xmlns="http://www.w3.org/2000/svg" xmlns:xlink="http://www.w3.org/1999/xlink" width="480pt" height="480pt" viewBox="0 0 480 480" version="1.1">
<g id="surface1">
<path style=" stroke:none;fill-rule:nonzero;fill:#42526E;fill-opacity:1;" d="M 100 60 C 77.890625 60 60 77.890625 60 100 L 60 240 C 60 262.109375 77.890625 280 100 280 L 200 280 L 200 380 C 200 402.109375 217.890625 420 240 420 L 380 420 C 402.109375 420 420 402.109375 420 380 L 420 240 C 420 217.890625 402.109375 200 380 200 L 280 200 L 280 100 C 280 77.890625 262.109375 60 240 60 Z M 157.03125 100 L 182.890625 100 L 216.796875 207.578125 C 206.640625 214.84375 200 226.5625 200 240 L 196.71875 240 L 189.21875 211.328125 L 150.703125 211.328125 L 143.203125 240 L 113.28125 240 Z M 169.921875 137.890625 L 156.875 187.8125 L 182.96875 187.8125 Z M 304.296875 240 C 324.84375 240 336.015625 248.046875 336.015625 248.046875 L 336.015625 260.546875 C 336.015625 260.546875 323.515625 255.546875 310.3125 255.546875 C 306.5625 255.546875 296.015625 258.828125 296.015625 267.34375 C 296.015625 277.96875 312.265625 281.015625 316.875 281.015625 C 330.078125 281.015625 343.828125 277.421875 343.828125 277.421875 L 335.15625 310 C 335.15625 310 322.03125 296.71875 303.4375 305.3125 C 290.078125 311.484375 286.953125 329.53125 289.765625 335.703125 C 303.4375 365.46875 362.5 362.5 362.5 362.5 C 362.5 362.5 345.234375 380 310.3125 380 C 287.03125 380 257.5 366.796875 257.5 340.3125 C 257.5 313.984375 283.984375 300.703125 283.984375 300.703125 C 283.984375 300.703125 271.015625 288.046875 271.015625 271.640625 C 271.015625 256.875 287.890625 240 304.296875 240 Z "/>
</g>
</svg>
