<?xml version="1.0" encoding="UTF-8"?>
<svg xmlns="http://www.w3.org/2000/svg" xmlns:xlink="http://www.w3.org/1999/xlink" width="208pt" height="208pt" viewBox="0 0 208 208" version="1.1">
<g id="surface1">
<path style=" stroke:none;fill-rule:nonzero;fill:#42526E;fill-opacity:1;" d="M 5.664063 0 C 1.324219 0.617188 -1.722656 4.648438 -1.109375 8.988281 C -0.492188 13.328125 3.539063 16.375 7.878906 15.757813 L 35.207031 15.757813 C 39.734375 15.757813 41.179688 16.648438 42.347656 17.726563 C 43.519531 18.804688 44.996094 20.929688 46.289063 25.359375 C 48.933594 34.316406 83.21875 150.929688 83.21875 150.929688 C 83.28125 151.175781 83.375 151.421875 83.464844 151.667969 C 83.464844 151.667969 92.207031 173.332031 114.242188 173.332031 L 176.042969 173.332031 C 178.875 173.363281 181.519531 171.886719 182.964844 169.425781 C 184.382813 166.960938 184.382813 163.945313 182.964844 161.484375 C 181.519531 159.023438 178.875 157.546875 176.042969 157.574219 L 114.242188 157.574219 C 102.609375 157.574219 97.992188 145.757813 97.992188 145.757813 C 97.992188 145.726563 96.855469 142.09375 96.761719 141.816406 L 160.777344 141.816406 C 168.902344 141.816406 172.5625 135.015625 173.332031 132.460938 L 201.648438 71.648438 C 206.019531 61.121094 203.742188 47.273438 187.613281 47.273438 L 73.371094 47.273438 C 72.046875 47.273438 70.601563 47.609375 69.1875 48.011719 C 66.355469 38.378906 61.890625 22.867188 61.308594 20.929688 C 59.644531 15.296875 57.460938 10.003906 52.9375 5.910156 C 48.410156 1.816406 42.164063 0 35.207031 0 L 7.878906 0 C 7.632813 0 7.386719 0 7.140625 0 C 6.894531 0 6.648438 0 6.402344 0 C 6.15625 0 5.910156 0 5.664063 0 Z M 75.832031 63.523438 L 109.070313 63.523438 L 109.070313 77.558594 L 80.265625 77.558594 L 76.570313 65.738281 C 76.324219 64.875 75.925781 64.109375 75.832031 63.523438 Z M 119.414063 63.523438 L 140.585938 63.523438 L 140.585938 77.558594 L 119.414063 77.558594 Z M 150.929688 63.523438 L 187.367188 63.523438 C 187.273438 64.078125 187.121094 64.570313 186.875 65.246094 L 181.210938 77.558594 L 150.929688 77.558594 Z M 83.464844 87.898438 L 109.070313 87.898438 L 109.070313 101.191406 L 87.652344 101.191406 Z M 119.414063 87.898438 L 140.585938 87.898438 L 140.585938 101.191406 L 119.414063 101.191406 Z M 150.929688 87.898438 L 176.289063 87.898438 L 170.132813 101.191406 L 150.929688 101.191406 Z M 90.851563 111.535156 L 109.070313 111.535156 L 109.070313 125.566406 L 96.023438 125.566406 C 95.714844 125.566406 95.53125 125.476563 95.285156 125.320313 Z M 119.414063 111.535156 L 140.585938 111.535156 L 140.585938 125.566406 L 119.414063 125.566406 Z M 150.929688 111.535156 L 165.453125 111.535156 L 158.808594 125.566406 L 150.929688 125.566406 Z M 110.304688 174.8125 C 102.425781 174.8125 96.023438 181.210938 96.023438 189.089844 C 96.023438 196.96875 102.425781 203.371094 110.304688 203.371094 C 118.183594 203.371094 124.582031 196.96875 124.582031 189.089844 C 124.582031 181.210938 118.183594 174.8125 110.304688 174.8125 Z M 157.574219 174.8125 C 149.695313 174.8125 143.296875 181.210938 143.296875 189.089844 C 143.296875 196.96875 149.695313 203.371094 157.574219 203.371094 C 165.453125 203.371094 171.855469 196.96875 171.855469 189.089844 C 171.855469 181.210938 165.453125 174.8125 157.574219 174.8125 Z "/>
</g>
</svg>
