<?xml version="1.0" encoding="UTF-8"?>
<svg xmlns="http://www.w3.org/2000/svg" xmlns:xlink="http://www.w3.org/1999/xlink" width="500pt" height="500pt" viewBox="0 0 500 500" version="1.1">
<g id="surface1">
<path style=" stroke:none;fill-rule:nonzero;fill:#42526E;fill-opacity:1;" d="M 208.332031 29.761719 C 115.289063 29.761719 39.683594 105.367188 39.683594 198.414063 C 39.683594 291.457031 115.289063 367.0625 208.332031 367.0625 C 245.148438 367.0625 279.171875 355.207031 306.917969 335.132813 L 437.4375 465.339844 L 465.339844 437.4375 L 336.371094 308.160156 C 361.714844 278.628906 376.984375 240.304688 376.984375 198.414063 C 376.984375 105.367188 301.378906 29.761719 208.332031 29.761719 Z M 208.332031 49.601563 C 290.644531 49.601563 357.144531 116.101563 357.144531 198.414063 C 357.144531 280.722656 290.644531 347.222656 208.332031 347.222656 C 126.023438 347.222656 59.523438 280.722656 59.523438 198.414063 C 59.523438 116.101563 126.023438 49.601563 208.332031 49.601563 Z "/>
</g>
</svg>
