<?xml version="1.0" encoding="UTF-8"?>
<svg xmlns="http://www.w3.org/2000/svg" xmlns:xlink="http://www.w3.org/1999/xlink" width="480pt" height="480pt" viewBox="0 0 480 480" version="1.1">
<g id="surface1">
<path style=" stroke:none;fill-rule:nonzero;fill:#42526E;fill-opacity:1;" d="M 236.84375 47.367188 C 132.175781 47.367188 47.367188 132.175781 47.367188 236.84375 C 47.367188 341.507813 132.175781 426.316406 236.84375 426.316406 C 341.507813 426.316406 426.316406 341.507813 426.316406 236.84375 C 426.316406 132.175781 341.507813 47.367188 236.84375 47.367188 Z M 252.632813 331.578125 L 221.050781 331.578125 L 221.050781 221.050781 L 252.632813 221.050781 Z M 236.84375 181.578125 C 223.765625 181.578125 213.15625 170.96875 213.15625 157.894531 C 213.15625 144.820313 223.765625 134.210938 236.84375 134.210938 C 249.917969 134.210938 260.527344 144.820313 260.527344 157.894531 C 260.527344 170.96875 249.917969 181.578125 236.84375 181.578125 Z "/>
</g>
</svg>
