<?xml version="1.0" encoding="UTF-8"?>
<svg xmlns="http://www.w3.org/2000/svg" xmlns:xlink="http://www.w3.org/1999/xlink" width="500pt" height="500pt" viewBox="0 0 500 500" version="1.1">
<g id="surface1">
<path style=" stroke:none;fill-rule:nonzero;fill:#42526E;fill-opacity:1;" d="M 248.015625 19.839844 C 160.511719 19.839844 89.285156 91.066406 89.285156 178.570313 C 89.285156 298.394531 234.414063 465.726563 240.574219 472.78125 C 242.472656 474.949219 245.148438 476.191406 248.015625 476.191406 C 250.882813 476.191406 253.558594 474.910156 255.457031 472.78125 C 261.617188 465.726563 406.746094 299.128906 406.746094 178.570313 C 406.746094 91.066406 335.519531 19.839844 248.015625 19.839844 Z M 158.730469 128.96875 L 277.777344 128.96875 L 277.777344 158.730469 L 312.808594 158.730469 L 337.300781 195.3125 L 337.300781 248.015625 L 317.460938 248.015625 C 317.460938 258.984375 308.585938 267.855469 297.617188 267.855469 C 286.652344 267.855469 277.777344 258.984375 277.777344 248.015625 L 228.175781 248.015625 C 228.175781 258.984375 219.300781 267.855469 208.332031 267.855469 C 197.367188 267.855469 188.492188 258.984375 188.492188 248.015625 L 168.652344 248.015625 L 168.652344 208.332031 L 158.730469 208.332031 L 158.730469 188.492188 L 188.492188 188.492188 L 188.492188 228.175781 L 257.9375 228.175781 L 257.9375 148.808594 L 158.730469 148.808594 Z M 158.730469 158.730469 L 208.332031 158.730469 L 208.332031 178.570313 L 158.730469 178.570313 Z M 277.777344 178.570313 L 277.777344 228.175781 L 317.460938 228.175781 L 317.460938 201.511719 L 302.269531 178.570313 Z "/>
</g>
</svg>
