<?xml version="1.0" encoding="UTF-8"?>
<svg xmlns="http://www.w3.org/2000/svg" xmlns:xlink="http://www.w3.org/1999/xlink" width="500pt" height="500pt" viewBox="0 0 500 500" version="1.1">
<g id="surface1">
<path style=" stroke:none;fill-rule:nonzero;fill:#42526E;fill-opacity:1;" d="M 458.480469 77.855469 C 385.042969 61.734375 341.679688 38.90625 310.019531 22.242188 C 285.410156 9.339844 267.664063 0 248.015625 0 C 228.367188 0 210.621094 9.339844 186.011719 22.242188 C 154.351563 38.90625 110.988281 61.734375 37.550781 77.855469 L 29.761719 79.558594 L 29.761719 87.542969 C 29.761719 389.734375 241.699219 491.109375 243.871094 492.078125 L 248.210938 494.09375 L 252.511719 491.925781 C 254.640625 490.839844 466.269531 379.695313 466.269531 87.542969 L 466.269531 79.558594 Z M 242.242188 309.089844 L 164.542969 238.792969 L 177.875 224.105469 L 238.25 278.707031 L 324.398438 145.011719 L 341.097656 155.746094 Z "/>
</g>
</svg>
