<?xml version="1.0" encoding="UTF-8"?>
<svg xmlns="http://www.w3.org/2000/svg" xmlns:xlink="http://www.w3.org/1999/xlink" width="480pt" height="480pt" viewBox="0 0 480 480" version="1.1">
<g id="surface1">
<path style=" stroke:none;fill-rule:nonzero;fill:#42526E;fill-opacity:1;" d="M 31.578125 31.578125 C 25.90625 31.515625 20.601563 34.476563 17.703125 39.410156 C 14.863281 44.347656 14.863281 50.390625 17.703125 55.324219 C 20.601563 60.257813 25.90625 63.21875 31.578125 63.15625 L 61.246094 63.15625 C 64.824219 63.15625 67.785156 65.378906 68.832031 68.832031 L 136.0625 297.59375 C 141.980469 317.703125 160.546875 331.578125 181.515625 331.578125 L 354.832031 331.578125 C 376.109375 331.578125 394.921875 317.207031 400.535156 296.667969 L 441.550781 146.300781 C 442.84375 141.550781 441.859375 136.429688 438.898438 132.546875 C 435.875 128.597656 431.25 126.316406 426.316406 126.316406 L 118.667969 126.316406 L 99.117188 59.949219 C 99.117188 59.890625 99.117188 59.890625 99.054688 59.949219 C 94.183594 43.175781 78.699219 31.578125 61.246094 31.578125 Z M 189.472656 363.15625 C 172.019531 363.15625 157.894531 377.28125 157.894531 394.738281 C 157.894531 412.191406 172.019531 426.316406 189.472656 426.316406 C 206.929688 426.316406 221.050781 412.191406 221.050781 394.738281 C 221.050781 377.28125 206.929688 363.15625 189.472656 363.15625 Z M 347.367188 363.15625 C 329.914063 363.15625 315.789063 377.28125 315.789063 394.738281 C 315.789063 412.191406 329.914063 426.316406 347.367188 426.316406 C 364.824219 426.316406 378.949219 412.191406 378.949219 394.738281 C 378.949219 377.28125 364.824219 363.15625 347.367188 363.15625 Z "/>
</g>
</svg>
