<?xml version="1.0" encoding="UTF-8"?>
<svg xmlns="http://www.w3.org/2000/svg" xmlns:xlink="http://www.w3.org/1999/xlink" width="500pt" height="500pt" viewBox="0 0 500 500" version="1.1">
<g id="surface1">
<path style=" stroke:none;fill-rule:nonzero;fill:#42526E;fill-opacity:1;" d="M 101.183594 482.160156 C 99.207031 482.160156 97.230469 481.152344 95.253906 480.144531 C 92.269531 478.167969 90.292969 473.207031 91.261719 469.253906 L 134.9375 306.53125 L 3.953125 200.390625 C 0 198.414063 -1.007813 193.453125 0 189.5 C 1.007813 185.507813 4.960938 182.523438 8.914063 182.523438 L 177.5625 173.609375 L 238.09375 15.886719 C 240.070313 12.90625 244.0625 9.921875 248.015625 9.921875 C 251.96875 9.921875 255.960938 12.90625 256.929688 15.886719 L 317.460938 173.609375 L 486.109375 182.523438 C 490.0625 182.523438 494.054688 185.507813 495.023438 189.5 C 496.03125 193.453125 495.023438 197.40625 492.078125 200.390625 L 361.09375 306.53125 L 404.769531 469.253906 C 405.738281 473.207031 404.769531 477.199219 400.777344 480.144531 C 397.832031 482.160156 392.871094 483.128906 389.890625 480.144531 L 248.015625 388.882813 L 106.144531 480.144531 C 104.167969 482.160156 103.160156 482.160156 101.183594 482.160156 Z "/>
</g>
</svg>
