<?xml version="1.0" encoding="UTF-8"?>
<svg xmlns="http://www.w3.org/2000/svg" xmlns:xlink="http://www.w3.org/1999/xlink" width="500pt" height="500pt" viewBox="0 0 500 500" version="1.1">
<g id="surface1">
<path style=" stroke:none;fill-rule:nonzero;fill:#42526E;fill-opacity:1;" d="M 306.882813 322.691406 C 305.410156 306.6875 305.988281 295.527344 305.988281 280.917969 C 313.234375 277.117188 326.21875 252.898438 328.386719 232.4375 C 334.085938 231.972656 343.074219 226.429688 345.710938 204.496094 C 347.105469 192.714844 341.488281 186.089844 338.039063 183.996094 C 347.300781 156.132813 366.558594 69.910156 302.464844 60.996094 C 295.835938 49.410156 278.941406 43.558594 257.007813 43.558594 C 169.15625 45.183594 158.574219 109.902344 177.835938 183.996094 C 174.386719 186.089844 168.765625 192.714844 170.164063 204.496094 C 172.835938 226.429688 181.789063 231.972656 187.484375 232.4375 C 189.65625 252.898438 203.140625 277.117188 210.425781 280.917969 C 210.425781 295.527344 210.96875 306.6875 209.496094 322.691406 C 192.136719 369.425781 74.871094 356.289063 69.445313 446.429688 L 446.429688 446.429688 C 441.003906 356.289063 324.242188 369.425781 306.882813 322.691406 Z "/>
</g>
</svg>
